<?xml version="1.0" standalone="no"?>
<!DOCTYPE svg PUBLIC "-//W3C//DTD SVG 20010904//EN"
 "http://www.w3.org/TR/2001/REC-SVG-20010904/DTD/svg10.dtd">
<svg version="1.0" xmlns="http://www.w3.org/2000/svg"
 width="60.000000pt" height="45.000000pt" viewBox="0 0 60.000000 45.000000"
 preserveAspectRatio="xMidYMid meet">
<metadata>
Created by potrace 1.16, written by Peter Selinger 2001-2019
</metadata>
<g transform="translate(0.000000,45.000000) scale(0.100000,-0.100000)"
fill="#fefefe" stroke="none">
<path d="M129 353 c-132 -129 -132 -127 0 -256 l98 -97 160 0 c147 0 162 2
187 21 l26 20 0 184 0 184 -26 20 c-25 19 -40 21 -187 21 l-160 0 -98 -97z
m206 -63 c16 -16 34 -30 40 -30 6 0 24 14 40 30 16 17 35 30 42 30 22 0 14
-25 -17 -55 -16 -16 -30 -34 -30 -40 0 -6 14 -24 30 -40 17 -16 30 -35 30 -42
0 -22 -25 -14 -55 17 -16 17 -34 30 -40 30 -6 0 -24 -13 -40 -30 -30 -31 -55
-39 -55 -17 0 7 14 26 30 42 17 16 30 34 30 40 0 6 -13 24 -30 40 -31 30 -39
55 -17 55 7 0 26 -13 42 -30z"/>
</g>
</svg>
