<svg id="vector" xmlns="http://www.w3.org/2000/svg" width="24" height="24" viewBox="0 0 24 24"><defs><clipPath id="clip_path_0"><path d="M1,9C1,4.582 4.582,1 9,1H11C15.418,1 19,4.582 19,9V11C19,15.418 15.418,19 11,19H2C1.448,19 1,18.552 1,18V9Z"/></clipPath></defs><path fill="#000000" d="M7.19,20.5C8.649,22.039 10.712,23 13,23H22C22.552,23 23,22.552 23,22V13C23,10.696 22.026,8.619 20.467,7.159C20.489,7.437 20.5,7.717 20.5,8V10C20.5,10.189 20.495,10.377 20.485,10.564C20.816,11.309 21,12.133 21,13V21H13C12.133,21 11.309,20.816 10.564,20.485C10.378,20.495 10.189,20.5 10,20.5H7.19Z" fill-rule="1" id="path_0"/><g id="g_0"><path fill="#00000000" d="M1,9C1,4.582 4.582,1 9,1H11C15.418,1 19,4.582 19,9V11C19,15.418 15.418,19 11,19H2C1.448,19 1,18.552 1,18V9Z" stroke="#000000" stroke-width="4" clip-path="url(#clip_path_0)"/></g><path fill="#000000" d="M8.777,11.316C8.732,10.537 8.955,10.181 9.867,9.446C10.557,8.889 10.713,8.667 10.713,8.199C10.713,7.576 10.268,7.198 9.578,7.198C8.732,7.198 8.153,7.776 8.064,8.756L6.417,8.466C6.595,6.797 7.819,5.729 9.6,5.729C11.336,5.729 12.494,6.663 12.494,8.066C12.494,8.912 12.138,9.513 11.225,10.136C10.602,10.559 10.335,10.87 10.335,11.249V11.316H8.777ZM8.532,14.299V12.206H10.624V14.299H8.532Z" id="path_1"/></svg>