<svg id="vector" xmlns="http://www.w3.org/2000/svg" width="24" height="24" viewBox="0 0 24 24"><path fill="#00000000" d="M10,17V19.616C10,19.983 10.146,20.335 10.406,20.595C10.665,20.854 11.017,21 11.385,21H17.615C17.983,21 18.335,20.854 18.594,20.595C18.854,20.335 19,19.983 19,19.616V4.384C19,4.017 18.854,3.665 18.594,3.405C18.335,3.146 17.983,3 17.615,3H11.385C11.017,3 10.665,3.146 10.406,3.405C10.146,3.665 10,4.017 10,4.384V7" stroke="#000000" stroke-width="2" stroke-linecap="square" stroke-linejoin="round" id="path_0"/><path fill="#000000" d="M2,11h9v2h-9z" id="path_1"/><path fill="#00000000" d="M5,8L1,12L5,16" stroke="#000000" stroke-width="2" stroke-linecap="square" stroke-linejoin="round" id="path_2"/></svg>