<?xml version="1.0" standalone="no"?>
<!DOCTYPE svg PUBLIC "-//W3C//DTD SVG 20010904//EN"
 "http://www.w3.org/TR/2001/REC-SVG-20010904/DTD/svg10.dtd">
<svg version="1.0" xmlns="http://www.w3.org/2000/svg"
 width="60.000000pt" height="45.000000pt" viewBox="0 0 60.000000 45.000000"
 preserveAspectRatio="xMidYMid meet">
<metadata>
Created by potrace 1.16, written by Peter Selinger 2001-2019
</metadata>
<g transform="translate(0.000000,45.000000) scale(0.100000,-0.100000)"
fill="#000000" stroke="none">
<path d="M280 307 c0 -7 16 -28 35 -47 l35 -34 -35 -36 c-19 -20 -35 -41 -35
-48 0 -22 26 -12 60 23 l34 35 38 -37 c30 -29 41 -34 50 -25 10 10 4 20 -25
49 l-37 37 37 38 c29 30 34 41 25 50 -9 9 -20 4 -50 -25 l-38 -37 -34 35 c-35
36 -60 45 -60 22z"/>
</g>
</svg>
