<svg id="vector" xmlns="http://www.w3.org/2000/svg" width="24" height="24" viewBox="0 0 24 24"><defs><clipPath id="clip_path_0"><path d="M1,10C1,5.582 4.582,2 9,2H15C19.418,2 23,5.582 23,10V21C23,21.552 22.552,22 22,22H9C4.582,22 1,18.418 1,14V10Z"/></clipPath></defs><g id="g_0"><path fill="#00000000" d="M1,10C1,5.582 4.582,2 9,2H15C19.418,2 23,5.582 23,10V21C23,21.552 22.552,22 22,22H9C4.582,22 1,18.418 1,14V10Z" stroke="#000000" stroke-width="4" clip-path="url(#clip_path_0)"/></g><path fill="#000000" d="M11.125,6H13.313L12.969,13.938H11.469L11.125,6ZM13.438,15.438V17.875H11V15.438H13.438Z" id="path_0"/></svg>