<?xml version="1.0" standalone="no"?>
<!DOCTYPE svg PUBLIC "-//W3C//DTD SVG 20010904//EN"
 "http://www.w3.org/TR/2001/REC-SVG-20010904/DTD/svg10.dtd">
<svg version="1.0" xmlns="http://www.w3.org/2000/svg"
 width="108.000000pt" height="108.000000pt" viewBox="0 0 108.000000 108.000000"
 preserveAspectRatio="xMidYMid meet">

<g transform="translate(0.000000,108.000000) scale(0.100000,-0.100000)"
fill="#000000" stroke="none">
<path d="M450 983 c-73 -12 -190 -61 -190 -79 0 -24 21 -26 63 -6 70 33 126
44 222 44 74 0 106 -5 166 -27 113 -40 109 -40 109 -17 0 15 -15 26 -62 46
-97 40 -212 55 -308 39z"/>
<path d="M409 862 c-36 -10 -92 -33 -123 -52 -63 -38 -146 -120 -146 -144 0
-32 21 -24 71 29 176 184 482 184 658 0 52 -54 71 -61 71 -26 0 26 -107 124
-168 155 -109 55 -242 69 -363 38z"/>
<path d="M415 750 c-161 -54 -256 -196 -242 -365 8 -85 28 -149 50 -153 21 -4
21 4 1 98 -9 46 -13 93 -9 120 27 190 215 314 403 266 142 -36 241 -148 243
-276 1 -44 -3 -56 -25 -78 -51 -51 -156 -21 -156 45 0 35 -24 85 -53 112 -36
33 -110 39 -156 13 -99 -54 -90 -211 20 -336 43 -49 157 -113 184 -103 29 12
14 34 -39 56 -111 46 -183 142 -188 250 -2 49 0 55 31 83 28 25 40 29 69 24
48 -7 78 -39 85 -87 17 -130 176 -175 252 -71 27 37 26 139 -4 205 -31 71
-110 149 -184 183 -83 37 -195 43 -282 14z"/>
<path d="M455 648 c-78 -28 -148 -104 -161 -175 -12 -64 3 -172 32 -232 27
-54 98 -141 116 -141 25 0 17 34 -17 71 -79 87 -114 225 -81 313 29 77 114
136 196 136 87 0 192 -80 205 -157 10 -56 13 -63 30 -63 24 0 19 69 -11 128
-27 55 -79 99 -143 120 -42 15 -125 14 -166 0z"/>
<path d="M520 403 c1 -74 55 -155 130 -193 73 -36 180 -35 180 1 0 16 -8 19
-59 19 -33 0 -72 5 -88 11 -58 22 -111 90 -122 159 -4 22 -13 36 -24 38 -14 3
-17 -4 -17 -35z"/>
</g>
</svg>
