<?xml version="1.0" standalone="no"?>
<!DOCTYPE svg PUBLIC "-//W3C//DTD SVG 20010904//EN"
 "http://www.w3.org/TR/2001/REC-SVG-20010904/DTD/svg10.dtd">
<svg version="1.0" xmlns="http://www.w3.org/2000/svg"
 width="141.000000pt" height="141.000000pt" viewBox="0 0 141.000000 141.000000"
 preserveAspectRatio="xMidYMid meet">

<g transform="translate(0.000000,141.000000) scale(0.100000,-0.100000)"
fill="#ffffff" stroke="none">
<path d="M554 1395 c-132 -29 -262 -103 -362 -208 -34 -36 -62 -70 -62 -76 0
-30 28 -17 83 41 71 74 131 117 221 159 143 67 330 77 476 24 88 -31 111 -34
117 -18 6 17 -65 51 -154 74 -89 22 -227 24 -319 4z"/>
<path d="M625 1320 c-137 -22 -249 -75 -345 -167 -149 -140 -215 -329 -189
-535 11 -86 11 -90 -14 -138 -20 -39 -23 -51 -13 -59 9 -8 17 -6 28 7 39 44
42 65 43 237 1 192 8 227 72 333 71 118 180 207 309 254 43 16 89 23 171 26
82 3 113 8 117 18 3 7 2 15 -2 18 -16 10 -130 14 -177 6z"/>
<path d="M874 1285 c-4 -9 -5 -17 -3 -18 2 -2 39 -20 82 -41 137 -66 248 -190
298 -331 31 -87 51 -261 47 -405 -2 -104 -1 -125 12 -125 24 0 32 71 26 230
-6 185 -25 275 -78 385 -53 109 -159 218 -263 272 -94 48 -114 53 -121 33z"/>
<path d="M1083 1274 c-4 -10 7 -26 33 -47 152 -123 245 -307 256 -507 2 -32 7
-45 18 -45 22 0 25 93 5 182 -9 41 -37 116 -62 166 -38 76 -61 107 -134 180
-48 48 -93 87 -99 87 -6 0 -13 -7 -17 -16z"/>
<path d="M578 1224 c-147 -35 -284 -146 -352 -284 -40 -81 -53 -165 -27 -165
9 0 20 19 27 49 63 245 304 406 551 368 206 -32 373 -194 413 -400 13 -65 24
-82 42 -64 17 17 -9 127 -49 212 -106 221 -365 343 -605 284z"/>
<path d="M570 1134 c-54 -19 -65 -28 -57 -47 5 -13 14 -13 67 4 115 36 244 19
343 -43 43 -28 77 -32 77 -9 0 14 -98 73 -154 93 -65 22 -213 23 -276 2z"/>
<path d="M597 1051 c-154 -51 -250 -178 -251 -331 -1 -146 8 -225 27 -228 27
-5 31 24 18 137 -12 100 -11 110 9 175 50 159 218 253 378 212 73 -18 126 -50
171 -102 69 -78 94 -192 89 -409 -2 -126 -1 -150 12 -150 24 0 32 70 27 235
-5 175 -22 245 -76 324 -87 126 -260 185 -404 137z"/>
<path d="M374 1008 c-26 -29 -61 -82 -78 -118 l-31 -65 0 -180 c-1 -176 -1
-181 -28 -233 -15 -29 -44 -71 -64 -93 -28 -31 -34 -42 -23 -49 19 -11 50 11
87 63 63 87 67 105 68 302 0 174 1 182 27 237 15 32 47 79 72 106 46 49 59 82
32 82 -8 0 -36 -24 -62 -52z"/>
<path d="M60 993 c-45 -100 -63 -199 -58 -318 5 -110 19 -160 41 -152 7 2 11
15 9 28 -2 13 -4 83 -5 154 -1 119 1 136 27 205 15 41 28 86 29 99 3 43 -21
34 -43 -16z"/>
<path d="M602 963 c-61 -21 -136 -99 -157 -163 -14 -43 -16 -72 -10 -175 6
-101 4 -137 -10 -194 -19 -79 -67 -166 -124 -226 -37 -39 -44 -65 -16 -65 20
0 100 95 134 161 52 97 65 165 57 317 -6 121 -5 137 14 180 12 26 31 58 43 71
32 34 115 71 163 71 39 0 63 18 47 34 -11 11 -98 5 -141 -11z"/>
<path d="M1035 971 c-3 -6 8 -36 25 -68 45 -86 63 -185 63 -348 1 -149 -9
-220 -49 -354 -17 -55 -22 -87 -16 -93 17 -17 29 -1 51 65 88 267 77 616 -24
769 -25 38 -39 46 -50 29z"/>
<path d="M814 939 c-4 -7 13 -28 38 -50 59 -50 83 -109 98 -234 20 -175 -12
-364 -91 -534 -43 -92 -47 -111 -23 -111 20 0 96 159 123 259 35 125 46 265
32 386 -18 157 -51 228 -126 275 -38 23 -41 24 -51 9z"/>
<path d="M649 887 c-55 -20 -95 -53 -113 -91 -37 -79 -3 -107 35 -29 29 57 72
85 133 85 82 0 137 -49 152 -135 3 -22 9 -72 13 -111 4 -54 10 -71 21 -71 12
0 15 17 13 97 -2 127 -29 193 -94 231 -55 33 -113 41 -160 24z"/>
<path d="M638 781 l-32 -29 -1 -181 c0 -152 2 -181 14 -179 8 2 18 17 23 33
11 38 12 173 3 246 -6 50 -4 60 14 78 12 12 32 21 46 21 62 0 81 -68 73 -268
-4 -98 -10 -133 -37 -212 -28 -82 -76 -176 -126 -245 -10 -14 -11 -25 -4 -35
27 -42 153 181 190 335 23 98 29 241 16 339 -17 114 -106 162 -179 97z"/>
<path d="M689 715 c-3 -3 -2 -31 3 -63 12 -71 4 -208 -17 -287 -21 -81 -78
-198 -127 -263 -36 -49 -44 -82 -19 -82 12 0 78 86 114 150 14 25 40 88 58
140 26 77 32 115 36 205 5 126 -5 198 -28 203 -8 1 -17 0 -20 -3z"/>
<path d="M176 607 c8 -108 -2 -146 -51 -212 -26 -34 -31 -46 -21 -54 9 -8 20
-2 42 22 47 51 52 60 69 123 13 50 13 71 3 137 -9 64 -15 77 -30 77 -17 0 -18
-7 -12 -93z"/>
<path d="M529 648 c0 -2 -2 -48 -4 -103 -5 -154 -58 -290 -152 -387 -23 -23
-33 -42 -30 -52 10 -26 23 -19 72 37 90 102 155 272 155 407 0 69 -8 100 -26
100 -8 0 -14 -1 -15 -2z"/>
<path d="M1215 638 c-2 -7 -6 -74 -8 -148 -3 -76 -12 -165 -21 -204 -13 -51
-14 -72 -6 -80 27 -27 52 58 69 237 11 117 4 207 -16 207 -7 0 -15 -6 -18 -12z"/>
<path d="M873 458 c-6 -7 -13 -37 -17 -66 -9 -72 -67 -231 -111 -304 -38 -64
-43 -88 -20 -88 45 0 149 242 179 417 6 36 -14 62 -31 41z"/>
<path d="M334 408 c-5 -7 -17 -29 -27 -49 -10 -20 -39 -60 -64 -88 -31 -36
-42 -56 -35 -63 16 -16 47 6 91 65 49 66 74 115 67 133 -7 17 -21 18 -32 2z"/>
<path d="M543 256 c-17 -35 -52 -89 -78 -121 -42 -51 -52 -85 -26 -85 31 0
181 235 166 260 -14 23 -32 7 -62 -54z"/>
<path d="M1007 274 c-4 -4 -7 -14 -7 -22 0 -8 -16 -55 -36 -104 -27 -68 -33
-93 -24 -102 16 -15 33 10 69 103 36 95 41 125 21 129 -9 1 -19 0 -23 -4z"/>
</g>
</svg>
